<?xml version="1.0" encoding="utf-8"?>
<svg version="1.1" id="Layer_1" xmlns="http://www.w3.org/2000/svg" x="0px" y="0px" width="100%" viewBox="362 362 300 300" enable-background="new 362 362 300 300">
  <style>
    /* Default (Light Mode) - Letters are Black */
    .letters path {
      fill: #000000;
    }

    /* Dark Mode - Letters turn White */
    @media (prefers-color-scheme: dark) {
      .letters path {
        fill: #ffffff;
      }
    }
  </style>
  
  <g class="letters">
    <path opacity="1.000000" stroke="none" d="M 416.914 620.076 C 410.248 620.085 404.079 619.975 397.917 620.145 C 394.221 620.247 392.476 619.153 392.497 615.061 C 392.54 607.049 392.345 607.081 400.356 605.587 C 405.26 604.672 410.11 603.414 415.043 602.737 C 418.399 602.276 419.588 600.656 419.675 597.489 C 419.875 590.164 420.46 582.845 420.481 575.523 C 420.568 545.36 420.954 515.187 420.335 485.036 C 419.925 465.064 421.34 445.092 419.902 425.126 C 419.589 420.775 418.397 418.464 413.704 417.913 C 407.94 417.237 402.279 415.72 396.55 414.698 C 390.126 413.552 393.133 408.55 392.657 405.108 C 392.125 401.256 395.14 401.517 397.669 401.519 C 432.332 401.54 466.999 401.266 501.655 401.739 C 515.975 401.934 530.138 404.254 543.438 410.295 C 561.915 418.687 572.564 433.034 576.028 452.817 C 577.974 463.93 577.61 475.036 574.776 486.001 C 567.694 513.393 548.253 526.807 521.993 532.121 C 506.696 535.217 491.174 534.75 475.706 533.516 C 472.459 533.257 471.105 533.903 471.124 537.344 C 471.232 557.175 471.314 577.007 471.173 596.836 C 471.142 601.289 473.739 602.008 477.096 602.51 C 484.99 603.69 492.89 604.84 500.754 606.202 C 505.58 607.038 506.028 608.671 505.269 616.674 C 504.864 620.95 501.886 620.072 499.404 620.075 C 472.074 620.111 444.744 620.085 416.914 620.076 M 471.161 432.414 C 471.158 454.872 471.154 477.331 471.152 499.789 C 471.15 515.143 471.15 515.143 486.789 514.531 C 506.015 513.777 518.694 503.431 522.836 484.745 C 525.418 473.097 525.429 461.291 523.245 449.595 C 520.741 436.188 513.898 426.261 499.921 422.614 C 493.892 421.041 487.752 421.018 481.596 421.1 C 469.507 421.262 471.356 419.923 471.161 432.414 Z" style="stroke-width: 1;">
      <title>letter</title>
    </path>
  </g>

  <path opacity="1.000000" stroke="none" d="M 619.271 618.087 C 608.19 624.748 595.463 623.848 586.462 615.985 C 577.431 608.096 574.405 594.966 579.119 584.123 C 583.927 573.062 595.182 566.496 607.359 567.648 C 618.876 568.737 628.53 577.37 630.991 589.525 C 633.376 601.301 629.129 610.743 619.271 618.087 Z" id="circle" style="fill: rgb(165, 40, 52); stroke-width: 1;">
    <title>circle</title>
  </path>
</svg>
